<svg width="69" height="54" viewBox="0 0 69 54" fill="none" xmlns="http://www.w3.org/2000/svg">
<path d="M25.7471 42.6588L22.5145 47.0191L22.2998 47.4545L23.1706 47.8839L26.9671 47.3201L30.4264 44.6955L33.9901 41.3105L36.5606 34.9998L38.1558 29.0203L30.6733 30.473L29.9309 33.6253L28.2192 38.1942L25.7471 42.6588Z" fill="#08A5E3"/>
<path d="M39.4702 11.5351L35.5935 17.2016L36.0289 17.4163L41.7697 15.1048L42.1931 13.1484L42.5122 11.9525L41.3103 10.5479L40.5498 10.4435L39.4702 11.5351Z" fill="#08A5E3"/>
<path d="M9.23109 39.9278L13.3165 32.7403L17.7631 31.9557L13.0215 38.2784L9.23109 39.9278Z" fill="#08A5E3"/>
<path d="M19.0212 23.9154L15.3532 28.061L15.4636 28.386L16.4448 29.1405L18.1805 28.9138L19.3704 28.1473L21.8425 23.6827L19.0212 23.9154Z" fill="#08A5E3"/>
<path d="M57.5095 13.1622C55.4704 13.3746 55.3015 14.0077 53.5402 12.4945C53.0207 12.0951 52.5012 11.6956 51.925 11.4115C50.2545 10.731 48.4475 11.3445 46.8418 11.9856C45.4943 12.539 44.1468 13.0925 42.9145 13.7028C43.085 13.357 43.1403 12.9544 43.2247 12.6378C43.4765 11.4008 42.3483 10.0564 41.2834 9.74623C40.4489 9.5497 39.358 9.72816 38.762 11.0821C38.1953 12.522 36.4839 14.8304 35.2288 16.504C34.8293 17.0235 34.4299 17.5429 34.2026 18.004L34.2318 18.09C30.7655 20.0345 25.4093 23.1964 22.1459 25.4559C22.4885 25.0517 22.7451 24.6767 23.0016 24.3017C23.3442 23.8975 23.0245 23.2384 22.4498 23.2416C20.9838 23.1635 19.7776 23.2851 18.659 23.6649C18.5729 23.6941 18.4008 23.7525 18.344 23.8677C17.8585 24.4164 15.8598 26.7264 14.6599 27.9974C13.0463 27.2017 12.7557 26.6286 9.5545 24.5486C8.54479 23.8358 7.36936 24.3308 6.13708 24.9411C5.0769 25.493 4.21644 25.7851 3.15467 26.0496C2.52313 26.168 2.24055 27.0317 2.84606 27.4019C3.45157 27.7721 6.19812 30.7742 6.31338 30.831C7.52758 32.1462 10.0973 34.3446 10.9625 34.9146C10.0224 36.3853 9.14064 38.0281 8.40021 39.2392C8.08683 39.7294 8.49262 40.3594 9.03811 40.2701C10.3304 40.1193 11.4782 39.8256 12.6537 39.3305C12.7397 39.3013 12.8826 39.1569 12.9686 39.1276C13.282 38.6374 13.8243 37.9735 14.4235 37.1943C18.7141 38.8085 23.5699 38.6954 27.7553 36.8905C26.4529 40.4036 24.8584 43.0561 21.9163 46.2621C21.059 47.1289 21.7278 48.5333 22.8772 48.5269C26.3025 49.5712 31.6231 45.1739 33.9921 42.2584C35.9254 43.7132 38.8462 41.8579 37.8838 39.3058C37.6793 38.7034 37.2459 38.2748 36.7557 37.9614C36.9262 37.6156 37.0106 37.2991 37.1811 36.9533C39.7705 37.5137 41.1605 34.2588 39.284 32.6887C46.8869 30.4914 53.9916 26.5439 59.882 21.2813C61.4261 19.8935 62.9686 18.2182 62.7269 16.0931C62.7514 15.3171 62.6037 14.5995 62.2271 14.0556C60.9837 12.6544 58.9446 12.8669 57.5095 13.1622ZM55.9378 14.7514C53.913 17.55 50.4403 18.3451 50.3787 17.5983C50.4064 17.397 51.0363 16.9912 51.1792 16.8467C52.1809 16.1228 52.8937 15.1131 53.1747 13.9621C54.04 14.532 54.7315 14.873 55.9378 14.7514ZM39.9714 11.5351C40.3124 10.8436 40.629 10.928 40.8303 10.9557C41.3774 11.1538 41.8984 11.8406 41.8724 12.3292C41.7343 13.3357 40.9631 14.1734 40.8786 14.4899C39.4742 15.1586 38.1559 15.7981 36.8668 16.5237C38.1219 14.85 39.4907 12.9459 39.9714 11.5351ZM19.1248 24.7542C19.7271 24.5498 20.3018 24.5466 20.9333 24.4281C20.2205 25.4378 19.3648 26.592 18.5952 27.717C17.7363 28.2965 16.8174 28.4165 16.0122 28.306C17.126 27.0642 18.4964 25.4474 19.1248 24.7542ZM7.34276 29.9058C6.88013 29.3911 5.63672 27.9899 4.62542 26.9897C5.39983 26.7268 6.05899 26.4071 6.8042 26.0581C8.29461 25.3602 8.69722 25.4155 8.81248 25.4723C12.4747 27.7796 15.4826 31.2688 19.4344 28.7756C19.5204 28.7464 32.6277 19.0185 47.3937 13.0458C48.6552 12.5215 50.204 11.9957 51.4134 12.4488C51.644 12.5625 51.9037 12.7622 52.1342 12.8758C51.6046 15.8386 48.96 15.6808 49.1141 17.5478C49.1465 18.2086 49.6383 18.8093 50.3575 18.949C51.9403 19.3713 55.9261 17.8262 57.774 14.2239C59.4965 13.927 60.503 14.0651 60.9948 14.6659C61.6896 15.5816 61.0076 16.9647 60.2656 17.8884C56.557 22.794 50.8535 25.4981 45.2361 28.1729C42.9144 29.249 41.4808 29.8317 38.4708 31.1415C38.5813 30.3362 38.6625 29.445 38.687 28.669C38.6009 28.6982 38.773 28.6397 38.687 28.669C38.713 28.1803 38.3088 27.8377 37.8786 27.9838C35.2095 28.602 32.7418 29.2479 30.2465 30.095C29.9883 30.1827 29.8455 30.3271 29.8178 30.5285C29.3095 32.1405 28.9441 33.6081 28.4342 34.9327C25.5654 35.8107 20.63 37.1024 17.6948 36.3715C17.0617 36.2026 16.2273 36.0061 15.4497 35.6943C16.4482 34.3957 17.5036 32.9817 18.1304 32.0012C18.5006 31.3957 17.749 30.5953 17.1483 31.0871C17.0054 31.2316 16.2018 31.4085 15.4842 31.5561C14.6806 31.733 13.7049 31.9683 12.7583 32.2896C12.5863 32.348 12.4434 32.4925 12.3865 32.6078C12.216 32.9536 11.9595 33.3285 11.789 33.6743C10.8377 33.1336 8.32644 31.1072 7.34276 29.9058ZM12.0726 38.1843C11.5563 38.3596 10.954 38.5641 10.4377 38.7394C11.3486 37.1826 12.659 35.1063 13.4271 33.694C14.2015 33.4311 15.0911 33.225 15.8087 33.0773L15.8948 33.0481C14.4399 34.9815 12.8422 37.0593 12.0726 38.1843ZM30.9152 31.4994C32.9803 30.7983 34.9317 30.3277 37.0553 29.7987C36.7191 31.3523 37.2353 31.177 34.6874 38.0878C32.9319 42.8103 28.3549 46.5713 22.9276 47.2623C27.555 42.2366 29.0556 38.1765 30.9152 31.4994ZM36.4842 40.8365C36.1708 41.3268 35.2812 41.5329 34.7909 41.2195C35.2472 40.5847 35.6742 39.864 36.1013 39.1432C36.5915 39.4566 36.7976 40.3463 36.4842 40.8365ZM37.605 35.6578C37.8599 34.9955 38.0288 34.3624 38.1978 33.7292C39.149 34.2699 38.7544 35.6515 37.605 35.6578Z" fill="black"/>
<path d="M21.0642 32.4453C21.4945 32.2992 21.665 31.9534 21.5189 31.5232C21.3728 31.093 20.941 30.9517 20.5968 31.0685C20.2526 31.1854 19.9961 31.5604 20.1421 31.9906C20.2882 32.4208 20.72 32.5621 21.0642 32.4453Z" fill="black"/>
<path d="M24.7059 31.0167L24.7628 30.9015C24.9333 30.5557 24.7872 30.1255 24.4414 29.955C24.0957 29.7845 23.6654 29.9305 23.4949 30.2763L23.5241 30.3624C23.3536 30.7081 23.4997 31.1384 23.8455 31.3089C24.1913 31.4794 24.6215 31.3333 24.7059 31.0167Z" fill="black"/>
<path d="M27.9738 29.6192C28.318 29.5024 28.5745 29.1274 28.4285 28.6972L28.3993 28.6111C28.2824 28.2669 27.9074 28.0104 27.4772 28.1564C27.047 28.3025 26.8765 28.6483 27.0225 29.0785L27.0517 29.1646C27.1978 29.5948 27.6296 29.7361 27.9738 29.6192Z" fill="black"/>
<path d="M30.8382 27.8793C31.1272 28.165 31.5006 28.1342 31.7863 27.8453C32.0721 27.5563 32.0413 27.1829 31.7524 26.8972L31.6079 26.7543C31.3189 26.4685 30.9455 26.4993 30.6598 26.7883C30.374 27.0772 30.4048 27.4506 30.6938 27.7364L30.8382 27.8793Z" fill="black"/>
<path d="M35.3987 26.3313L35.4555 26.216C35.626 25.8702 35.48 25.44 35.1342 25.2695C34.7884 25.099 34.3582 25.2451 34.1877 25.5909L34.1308 25.7061C33.9603 26.0519 34.1064 26.4821 34.4522 26.6526C34.7979 26.8231 35.2282 26.6771 35.3987 26.3313Z" fill="black"/>
<path d="M39.2139 25.1318L39.2707 25.0166C39.4412 24.6708 39.2951 24.2406 38.9494 24.0701C38.6036 23.8995 38.1734 24.0456 38.0028 24.3914L37.946 24.5066C37.7755 24.8524 37.9216 25.2827 38.2674 25.4532C38.6131 25.6237 39.0434 25.4776 39.2139 25.1318Z" fill="black"/>
<path d="M41.8225 24.0539L41.9086 24.0247C42.2528 23.9079 42.5093 23.5329 42.3632 23.1026C42.2172 22.6724 41.8714 22.5019 41.4412 22.648L41.3551 22.6772C41.0109 22.794 40.7544 23.169 40.9004 23.5993C41.0465 24.0295 41.4783 24.1708 41.8225 24.0539Z" fill="black"/>
<path d="M45.3769 22.3678C45.7211 22.251 45.9484 21.7899 45.8316 21.4457C45.7439 21.1876 45.4842 20.9879 45.1968 20.9895C44.7082 20.9635 44.3656 21.3677 44.5409 21.8839C44.6869 22.3142 45.0327 22.4847 45.3769 22.3678Z" fill="black"/>
<path d="M48.3561 20.6849C48.7003 20.5681 48.9569 20.1931 48.8108 19.7628L48.7816 19.6768C48.6647 19.3326 48.2897 19.076 47.8595 19.2221C47.4293 19.3682 47.2588 19.7139 47.4048 20.1442L47.4341 20.2302C47.5801 20.6605 48.0119 20.8018 48.3561 20.6849Z" fill="black"/>
<path d="M16.291 21.4948C16.4631 21.4364 16.606 21.2919 16.7196 21.0614C16.8902 20.7156 16.658 20.3146 16.3123 20.1441L14.21 19.3224C13.8642 19.1519 13.4632 19.384 13.2927 19.7298C13.1222 20.0755 13.3543 20.4766 13.7001 20.6471C15.6579 21.3259 15.9468 21.6116 16.291 21.4948Z" fill="black"/>
<path d="M17.7453 19.5611C18.0895 19.4442 18.3168 18.9832 18.1139 18.6682L16.3675 14.6549C16.2506 14.3107 15.8188 14.1694 15.4746 14.2862C15.1305 14.4031 14.9892 14.8349 15.106 15.1791L16.8524 19.1925C17.0553 19.5074 17.4871 19.6487 17.7453 19.5611Z" fill="black"/>
<path d="M20.9845 18.0779C21.2395 17.4156 21.2931 16.7256 21.1455 16.008C21.1147 15.6346 20.7397 15.3781 20.3663 15.4089C19.9929 15.4397 19.7363 15.8147 19.7671 16.1881C19.8272 16.6475 19.8011 17.1362 19.6598 17.568C19.4893 17.9138 19.7214 18.3148 20.0672 18.4853C20.499 18.6266 20.9001 18.3945 20.9845 18.0779Z" fill="black"/>
</svg>
