<svg width="53" height="43" viewBox="0 0 53 43" fill="none" xmlns="http://www.w3.org/2000/svg">
<path d="M19.6412 23.5239H15.978C15.1985 23.5239 14.4971 24.0298 14.4971 24.7254V27.2548C14.4971 27.8872 15.1206 28.4563 15.978 28.4563H19.6412C20.4206 28.4563 21.1221 27.9504 21.1221 27.2548V24.7254C21.1221 24.0298 20.4206 23.5239 19.6412 23.5239ZM19.953 27.1916C19.953 27.318 19.7971 27.4445 19.6412 27.4445H15.978C15.8221 27.4445 15.6662 27.318 15.6662 27.1916V24.6622C15.6662 24.5357 15.8221 24.4092 15.978 24.4092H19.6412C19.7971 24.4092 19.953 24.5357 19.953 24.6622V27.1916Z" fill="black"/>
<path d="M34.2161 24.6619C34.2161 24.0296 33.5925 23.4604 32.7352 23.4604H29.0719C28.2925 23.4604 27.5911 23.9663 27.5911 24.6619V27.1913C27.5911 27.8237 28.2146 28.3928 29.0719 28.3928H32.7352C33.5146 28.3928 34.2161 27.8869 34.2161 27.1913V24.6619ZM33.0469 27.1913C33.0469 27.3178 32.8911 27.4443 32.7352 27.4443H29.0719C28.9161 27.4443 28.7602 27.3178 28.7602 27.1913V24.6619C28.7602 24.5355 28.9161 24.409 29.0719 24.409H32.7352C32.8911 24.409 33.0469 24.5355 33.0469 24.6619V27.1913Z" fill="black"/>
<path d="M19.6412 16.6943H15.978C15.1985 16.6943 14.4971 17.2002 14.4971 17.8958V20.4252C14.4971 21.0576 15.1206 21.6267 15.978 21.6267H19.6412C20.4206 21.6267 21.1221 21.1208 21.1221 20.4252V17.8958C21.1221 17.2002 20.4206 16.6943 19.6412 16.6943ZM19.953 20.362C19.953 20.4885 19.7971 20.6149 19.6412 20.6149H15.978C15.8221 20.6149 15.6662 20.4885 15.6662 20.362V17.8326C15.6662 17.7061 15.8221 17.5796 15.978 17.5796H19.6412C19.7971 17.5796 19.953 17.7061 19.953 17.8326V20.362Z" fill="black"/>
<path d="M29.0719 21.5632H32.7352C33.5146 21.5632 34.2161 21.0573 34.2161 20.3617V17.8323C34.2161 17.2 33.5925 16.6309 32.7352 16.6309H29.0719C28.2925 16.6309 27.5911 17.1367 27.5911 17.8323V20.3617C27.5911 21.0573 28.2146 21.5632 29.0719 21.5632ZM28.7602 17.8323C28.7602 17.7059 28.9161 17.5794 29.0719 17.5794H32.7352C32.8911 17.5794 33.0469 17.7059 33.0469 17.8323V20.3617C33.0469 20.4882 32.8911 20.6147 32.7352 20.6147H29.0719C28.9161 20.6147 28.7602 20.4882 28.7602 20.3617V17.8323Z" fill="black"/>
<path d="M37.2558 33.8945H34.1382C33.8264 33.8945 33.5146 34.0842 33.5146 34.4004C33.5146 34.7166 33.7485 34.9063 34.1382 34.9063H37.2558C37.5676 34.9063 37.8794 34.7166 37.8794 34.4004C37.8794 34.0842 37.5676 33.8945 37.2558 33.8945Z" fill="black"/>
<path d="M15.5102 33.8945H12.7043C12.3926 33.8945 12.0808 34.0842 12.0808 34.4004C12.0808 34.7166 12.3146 34.9063 12.7043 34.9063H15.5102C15.822 34.9063 16.1338 34.7166 16.1338 34.4004C16.1338 34.0842 15.822 33.8945 15.5102 33.8945Z" fill="black"/>
<path d="M15.9 5.56488C16.5236 5.50164 17.0692 4.99576 16.9912 4.48988C16.9912 3.85753 16.3677 3.41488 15.5883 3.54135C15.0427 3.35164 14.1853 4.04723 14.4192 4.80606C14.575 5.31194 15.1986 5.62811 15.9 5.56488ZM15.8221 4.48988C15.8221 4.55311 15.7442 4.61635 15.6662 4.61635C15.5883 4.61635 15.5883 4.61635 15.5103 4.55311C15.5883 4.55311 15.7442 4.55311 15.8221 4.48988Z" fill="black"/>
<path d="M23.3045 5.56488C24.4736 5.43841 24.8633 4.1737 23.8501 3.66782C23.6162 3.54135 23.3045 3.47811 22.9927 3.54135C22.4471 3.35164 21.5118 4.04723 21.8236 4.80606C22.0574 5.31194 22.681 5.62811 23.3045 5.56488ZM23.3045 4.48988C23.3045 4.55311 23.2265 4.61635 23.1486 4.61635C23.0707 4.61635 23.0707 4.61635 22.9927 4.55311C23.1486 4.55311 23.1486 4.55311 23.3045 4.48988Z" fill="black"/>
<path d="M30.9425 5.31195C31.566 5.24871 32.0337 4.74283 32.0337 4.23695C32.0337 3.6046 31.3322 3.16195 30.6307 3.28842C30.0852 3.09871 29.2278 3.7943 29.4616 4.55313C29.6955 5.05901 30.319 5.37518 30.9425 5.31195ZM30.8646 4.23695C30.8646 4.30018 30.7866 4.36342 30.7087 4.36342C30.6308 4.36342 30.6307 4.36342 30.5528 4.30018C30.7087 4.30018 30.7866 4.30018 30.8646 4.23695Z" fill="black"/>
<path d="M35.7441 14H8.62778H8.0115L6.16267 13.5L5.54639 12.5V11L7.39522 10H18.4882H36.3603H42.5231L43.1394 11V13L41.9069 14H35.7441Z" fill="#BFBEBE"/>
<path d="M19.7208 33.5V41.5H24.651H30.8138V40L31.4301 37L30.8138 30.5H28.3487H24.0348L19.7208 30V33.5Z" fill="#BFBEBE"/>
<path d="M7.48233 41.1664H4.67645C4.36468 41.1664 4.13086 41.3561 4.13086 41.6723C4.13086 41.9884 4.36468 42.1149 4.75439 42.1149L46.9206 42.0517C47.2323 42.0517 47.4662 41.862 47.4662 41.5458C47.4662 41.2296 47.2323 41.1032 46.8426 41.1032H46.297L46.375 35.0326C47.9338 35.0326 48.2456 35.0326 48.4794 34.9061C48.6353 34.8429 48.7132 34.7164 48.7912 34.5267C48.8691 34.4002 48.947 34.2737 48.947 34.1473C48.7912 33.262 48.947 31.6811 48.7132 30.6693C48.6353 30.4164 48.4015 30.2267 48.0897 30.2899C46.375 30.3532 44.5044 30.3532 42.7897 30.4164C42.4779 30.4164 42.2441 30.6061 42.2441 30.859C41.9323 31.2384 41.9323 31.6811 41.9323 32.1237C41.9323 32.8826 41.7765 34.4634 42.5559 34.8429C42.9456 35.0326 43.3353 34.9693 45.2059 34.9693L45.1279 41.0399H40.997C40.9191 32.8193 40.997 24.409 41.1529 14.3546H41.6985C42.7897 14.3546 43.647 13.659 43.8809 12.7737C43.9588 12.3311 44.0367 11.9517 44.0367 11.509C44.0367 10.434 43.1015 9.61198 41.8544 9.54874C37.1 9.35904 34.6059 9.35904 29.5397 9.2958V7.33551H30.0853H33.5926C35.2294 7.33551 36.3206 6.32374 36.3206 5.18551C36.3206 4.30021 36.2426 3.41492 36.1647 2.71933C36.0867 1.5811 34.9176 0.695801 33.5147 0.695801C29.15 0.695801 14.2632 1.01198 14.1073 0.948742C13.8735 0.948742 13.5617 1.01198 13.3279 1.07521C13.25 1.07521 13.25 1.07521 13.172 1.07521C12.4706 1.26492 11.7691 1.70757 11.3794 2.08698C10.7559 2.65609 10.6779 3.54139 10.6 4.30021C10.6 4.86933 10.6 5.50168 10.7559 6.0708C11.2235 7.58845 12.7044 8.0311 14.497 7.96786C15.822 7.90462 17.147 7.90462 18.3941 7.84139V9.42227C14.4191 9.42227 10.6 9.48551 7.01468 9.61198C6.00145 9.61198 5.14409 10.2443 4.91027 11.1296C3.58527 13.0899 5.45586 15.1767 7.87204 15.1767C7.24851 20.2987 7.56027 22.7017 7.48233 41.1664ZM47.5441 31.3017C47.622 31.9973 47.5441 32.9458 47.622 33.7046C46.2191 33.5782 44.8162 33.6414 43.3353 33.7046C43.3353 33.009 43.3353 32.1237 43.4132 31.3649C44.7382 31.3649 46.2191 31.3649 47.5441 31.3017ZM20.4206 30.7326C21.6676 30.6693 23.0706 30.6693 24.5515 30.6693V41.1664H20.4985C20.3426 37.4987 20.3426 34.084 20.4206 30.7326ZM30.475 30.7958C30.7088 33.8311 30.7088 37.1193 30.475 41.1664H25.6426V30.6693C27.2015 30.6693 28.7603 30.7326 30.475 30.7958ZM39.75 41.1664H31.6441C31.8779 37.1826 31.8779 33.8943 31.6441 30.859C32.2676 30.859 32.8132 30.9223 33.4367 30.9855C33.7485 30.9855 34.0603 30.7958 34.0603 30.5429C34.0603 30.2899 33.8265 30.037 33.5147 30.037C26.5779 29.5943 21.3559 29.5943 16.9912 30.037C16.6794 30.1002 16.4456 30.2899 16.4456 30.5429C16.4456 30.7958 16.7573 30.9855 16.9912 30.9855H17.0691C17.6926 30.9223 18.3941 30.859 19.0956 30.7958C19.0176 34.084 19.0176 37.4987 19.0956 41.1664H9.27498C9.27498 21.7532 8.88527 27.634 9.19704 18.9708C9.27498 17.4532 9.27498 15.9355 9.27498 14.4811C19.875 14.6708 28.6823 14.6708 39.672 14.4811C39.75 24.5355 39.672 32.9458 39.75 41.1664ZM33.3588 1.83404C34.1382 1.83404 34.8397 2.33992 34.8397 2.97227C34.9176 3.60462 34.9956 4.48992 34.9956 5.37521C34.9956 6.0708 34.2162 6.57668 33.4367 6.57668C27.0456 6.51345 20.4985 6.63992 13.9514 6.76639C13.0941 6.76639 12.4706 6.26051 12.3926 5.56492C12.3147 4.67962 12.3926 3.85757 12.3926 3.16198C12.4706 2.59286 13.0162 2.08698 13.9514 2.08698C20.4985 2.02374 27.0456 1.83404 33.3588 1.83404ZM19.4853 7.77815C22.3691 7.71492 25.2529 7.58845 28.2147 7.52521V9.42227C25.4088 9.42227 22.447 9.35904 19.4853 9.35904V7.77815ZM7.01468 10.4973C17.6926 10.1811 32.5015 10.3076 41.6985 10.5605C42.2441 10.5605 42.7117 11.0032 42.7117 11.5723C42.7117 11.9517 42.7117 12.2679 42.5559 12.6473C42.4779 13.0899 42.0103 13.4061 41.5426 13.4061C30.0853 13.659 18.7838 13.659 7.01468 13.4061C6.46909 13.4061 6.00145 13.0267 6.00145 12.5208C6.00145 12.1414 6.00145 11.762 6.00145 11.3826C5.92351 10.9399 6.39115 10.5605 7.01468 10.4973Z" fill="black"/>
<path d="M43.1015 8.2209L43.647 5.50178C43.725 5.24884 43.4912 4.9959 43.1794 4.93267C42.8676 4.86943 42.5559 5.05914 42.4779 5.31208L41.9323 8.09443C41.8544 8.34737 42.0882 8.60031 42.4 8.66355C42.7118 8.66355 43.0235 8.47384 43.1015 8.2209Z" fill="black"/>
<path d="M46.6866 6.38709L44.4263 8.66356C44.1925 8.85327 44.2705 9.16945 44.5043 9.35915C44.7381 9.54886 45.1278 9.48562 45.3616 9.29592L47.544 6.95621C47.7778 6.7665 47.6999 6.45033 47.466 6.26062C47.2322 6.13415 46.8425 6.19739 46.6866 6.38709Z" fill="black"/>
<path d="M45.3618 10.5603C45.3618 10.8133 45.5956 11.0662 45.9074 11.0662L48.3236 11.1927C48.6353 11.1927 48.8692 11.003 48.8692 10.75C48.8692 10.4971 48.6353 10.2441 48.3236 10.2441L45.9853 10.1177C45.6736 10.1177 45.3618 10.3074 45.3618 10.5603Z" fill="black"/>
</svg>
