<svg width="31" height="31" viewBox="0 0 31 31" fill="none" xmlns="http://www.w3.org/2000/svg">
<path d="M0.5 14.5V12L1.5 11L8.5 5L13.5 1L14.5 0.5L21.5 6L28.5 12V14.5L27.5 14L18.5 6L14.5 3L11.5 5L5.5 10L0.5 14.5Z" fill="#BFBEBE"/>
<path d="M0.00337068 12.0833C-0.0206081 12.8942 0.0919982 13.8762 0.0692091 14.651C0.05957 14.9717 0.450419 15.1384 0.674411 14.9098C1.04694 14.5315 1.42785 14.159 1.80809 13.7861C1.64481 14.2439 1.67526 13.4877 1.88316 25.9929C1.90728 27.4431 2.04876 29.1236 3.24658 29.9414C3.99477 30.4523 4.962 30.4726 5.86794 30.4749C28.4912 30.5315 27.0552 30.6 27.5109 30.3984C28.3083 30.0456 28.2643 28.895 26.5856 29.0103C26.1832 29.0378 25.7804 29.0591 25.3779 29.084C25.7818 28.5926 25.738 28.0993 25.7473 28.0522C25.8929 23.0437 26.0368 17.8729 25.9422 12.7398C26.691 13.4158 27.4344 14.0989 28.1604 14.7952C28.393 15.0176 28.7767 14.8385 28.758 14.5198C28.7156 13.7834 28.7359 12.7023 28.6921 11.9521C28.6871 11.8628 28.6484 11.779 28.5839 11.7173C23.9246 7.24905 18.6647 3.14635 14.6029 0.0717449C14.4811 -0.0203368 14.3149 -0.0240201 14.189 0.0620763C9.08171 3.57776 4.34295 7.54234 0.104891 11.8458C0.0422752 11.9093 0.00590293 11.9945 0.00337068 12.0833ZM10.1591 28.9462C10.0229 26.1731 10.0637 23.3677 10.2831 20.6004C12.5826 20.6652 14.9135 20.6424 17.2296 20.7063C17.2289 21.9821 17.271 23.3215 17.3117 24.6203C17.4568 29.2537 17.3546 28.7 17.4072 28.9349C14.4328 28.9379 12.7839 28.9466 10.1591 28.9462ZM25.0388 28.0918C25.0243 28.5825 24.6299 28.9633 24.1382 28.9633C23.5102 28.9633 22.6297 28.9332 18.0842 28.9348C18.1839 28.4821 17.9199 22.9414 17.9381 20.3656C17.9395 20.1741 17.7876 20.0162 17.5958 20.0097C15.0456 19.9292 12.4693 19.964 9.96938 19.8836C9.77462 19.873 9.62154 20.0199 9.60565 20.2073C9.36089 23.1022 9.31044 26.0417 9.45167 28.9463C7.81961 28.9444 6.18349 28.9367 4.56625 28.9173C4.07799 28.9117 3.68595 28.5232 3.67398 28.0328C3.23129 11.7263 3.36193 12.6348 3.20393 12.4467C6.67967 9.17656 10.4452 6.12595 14.4457 3.35768C17.6197 5.76355 21.493 8.78475 25.228 12.1008C25.3484 17.428 25.1928 22.7885 25.0388 28.0918ZM14.3799 0.789982C18.3677 3.81303 23.4628 7.79924 27.9932 12.1308C28.0146 12.5964 28.0162 13.18 28.0245 13.6906C23.5238 9.45211 18.5493 5.57639 14.6688 2.63944C14.547 2.54736 14.381 2.54414 14.2549 2.62978C9.38466 5.98155 4.85009 9.74217 0.764656 13.8159C0.741622 13.2713 0.702467 12.7344 0.707566 12.2417C4.83076 8.06812 9.42909 4.21634 14.3799 0.789982Z" fill="black"/>
<path d="M11.7092 14.6074C13.0464 16.0671 15.7182 15.7357 16.8027 13.9882C17.486 12.8874 17.3794 11.4076 16.5495 10.4697C13.971 7.55502 9.06246 11.7145 11.7092 14.6074ZM16.2019 13.6153C15.3367 15.0082 13.2167 15.2063 12.2309 14.1295C10.2355 11.9504 14.0501 8.71042 16.0198 10.9384C16.6375 11.6364 16.7157 12.7874 16.2019 13.6153Z" fill="black"/>
<path d="M22.8548 0.750553L22.2183 4.29754C22.1838 4.48999 22.3118 4.67369 22.504 4.70823C22.7027 4.74279 22.881 4.60926 22.9145 4.42277L23.551 0.875784C23.5855 0.683333 23.4575 0.49963 23.2653 0.465099C23.0752 0.430569 22.8894 0.558562 22.8548 0.750553Z" fill="black"/>
<path d="M24.4467 5.76231C24.7294 5.76231 24.6186 5.68131 27.0807 3.08549C27.2133 2.9423 27.2048 2.71855 27.0616 2.58595C26.9182 2.45289 26.6949 2.4621 26.5618 2.60482L24.1872 5.16838C23.9776 5.39478 24.1408 5.76231 24.4467 5.76231Z" fill="black"/>
<path d="M30.0103 5.947C29.965 5.75777 29.7753 5.64175 29.5842 5.68549C28.4104 5.96634 27.2538 6.35308 26.1463 6.83467C25.9675 6.91247 25.8853 7.12058 25.9631 7.29968C26.0424 7.48235 26.254 7.55971 26.4286 7.48292C27.4981 7.01791 28.615 6.64452 29.7486 6.37334C29.9385 6.32776 30.0557 6.13715 30.0103 5.947Z" fill="black"/>
</svg>