<svg width="68" height="44" viewBox="0 0 68 44" fill="none" xmlns="http://www.w3.org/2000/svg">
<path d="M65.4336 38.3052L65.8806 36.6324L65.4336 33.5258L63.6456 30.8971L61.8577 29.7022L59.3992 29.2243L56.9407 29.7022L54.4822 31.614L53.3647 34.4817L53.1412 36.8714L53.8117 38.7831L54.9292 41.1728L57.6112 42.6067L60.0697 43.3236L61.8577 42.3677L63.6456 41.1728L64.7631 39.978L65.4336 38.3052Z" fill="#BFBEBE"/>
<path d="M5.75971 33.0478L7.77119 30.1802L11.1237 28.7464L14.6996 30.4191L17.1581 32.5699L18.2756 36.6324L16.9346 40.217L14.2526 42.1287L10.4532 42.8456L7.1007 41.1728L5.53621 38.5442L5.31271 35.6765L5.75971 33.0478Z" fill="#BFBEBE"/>
<path d="M31.462 11.0625V19.4265L46.4363 18.9485L41.5194 11.5404L31.462 11.0625Z" fill="#BFBEBE"/>
<path d="M67.45 30.8469C67.0362 32.8377 66.4156 33.8331 65.6916 34.0543C66.4156 37.3722 64.8641 40.6902 62.1747 42.2386C59.6922 44.0082 56.0718 44.1188 53.4859 43.0128C52.4515 42.5704 52.7618 41.7962 53.3825 41.6856C53.7962 41.575 54.0031 41.7962 55.1409 42.0174C53.4859 40.9114 52.3481 39.2524 51.9343 37.151C51.7274 37.3722 51.4171 37.4828 51.2103 37.5934C40.5562 39.916 29.4883 39.2524 18.6273 38.5888C18.1102 39.916 17.2826 41.022 16.2483 41.7962C14.4898 44.7824 7.76637 44.2294 6.62856 43.1234C6.00793 42.5704 6.2148 41.575 7.66293 41.6856C7.76637 41.6856 7.86981 41.6856 7.97325 41.6856C6.00793 40.1372 4.76667 37.4828 5.18042 34.4967C4.97355 35.0496 4.66323 35.6026 4.35292 35.9344C3.42198 36.7086 1.66354 36.2662 0.939476 35.6026C-0.612091 34.1649 0.732597 31.7317 1.45667 29.6303C2.3876 26.7547 2.28417 27.6395 3.52542 23.8792C4.04261 22.3308 4.5598 20.7824 5.18042 19.5658C7.0423 15.916 9.31794 11.8239 12.9383 9.72248C15.2139 8.2847 15.8345 8.1741 20.0755 7.7317C20.0755 7.5105 30.3158 7.3999 30.3158 7.3999H38.384C43.6593 7.3999 43.2455 7.8423 49.1415 14.0358C51.2103 16.1372 54.1065 15.1418 62.2781 18.4598C63.4159 18.9022 64.6572 19.4552 65.795 20.4506C68.4844 23.2156 68.2775 27.6395 67.45 30.8469ZM66.4156 26.6441C65.2778 26.8653 65.2778 28.3031 66.3122 28.7455C66.4156 28.0819 66.4156 27.4183 66.4156 26.6441ZM58.8647 41.575C61.8644 41.575 64.3469 38.9206 64.3469 35.7132C64.3469 32.5059 61.8644 29.8515 58.8647 29.8515C55.865 29.8515 53.3825 32.5059 53.3825 35.7132C53.3825 38.9206 55.865 41.575 58.8647 41.575ZM12.2142 41.6856C15.2139 41.6856 17.6964 39.0312 17.6964 35.8238C17.6964 32.6165 15.2139 29.9621 12.2142 29.9621C9.2145 29.9621 6.73199 32.6165 6.73199 35.8238C6.73199 39.1418 9.11106 41.6856 12.2142 41.6856ZM13.7658 11.2709C10.4558 13.2617 8.28356 17.022 6.62856 20.4506C6.2148 21.3354 5.69761 22.552 5.28386 23.7686C6.00793 24.8746 6.52512 26.4229 5.90449 27.4183C5.3873 28.4137 4.35292 28.9667 3.31855 29.0773C2.90479 30.1833 2.69792 30.9575 2.3876 31.9529C2.18073 32.6165 1.5601 34.0543 1.97385 34.6072C2.28416 34.939 3.11167 35.0496 3.31855 34.939C3.62886 34.7178 4.04261 33.1695 4.35292 32.6165C5.49073 30.7363 6.83543 29.4091 8.59387 28.6349C11.2833 27.5289 14.4898 27.8607 16.9723 29.5197C19.0411 30.8469 20.2823 33.0589 20.903 36.2662C22.7649 36.3768 24.6267 36.3768 26.4886 36.4874C25.7645 32.6165 26.3852 19.6764 27.0058 9.16949C23.6958 9.28009 20.2823 9.50128 16.8689 10.0543C15.8345 10.1649 14.8001 10.7179 13.7658 11.2709ZM44.3834 11.1603C42.6249 9.05889 42.418 9.16949 41.1768 9.05889C40.5562 9.05889 35.2808 8.83769 28.6608 9.05889C28.6608 9.16949 27.2127 32.6165 28.2471 36.4874C34.6602 36.598 41.0733 36.3768 46.8659 36.045C46.8659 35.9344 46.8659 35.8238 46.8659 35.6026C48.6243 29.1879 49.1415 22.2202 48.4174 15.5842C47.0727 14.4782 44.4868 11.2709 44.3834 11.1603ZM64.7606 21.999C62.6919 20.1188 56.1753 18.2386 53.279 17.6856C52.2446 17.4644 51.1068 17.2432 49.969 16.8008C50.5896 23.2156 49.969 29.8515 48.314 36.045C49.0381 36.045 49.7621 35.9344 50.3828 35.9344C51.4171 32.0635 53.4859 29.6303 56.2787 28.6349C57.8303 28.1925 60.1059 27.9713 61.8644 28.9667C63.5194 29.8515 64.2434 30.8469 65.3812 32.3953C65.6916 31.8423 65.8984 31.0681 66.0019 30.5151C64.6572 30.1833 63.8297 28.7455 64.0366 27.4183C64.14 26.3123 65.0709 25.3169 66.3122 25.0958C66.1053 23.8792 65.6916 22.7732 64.7606 21.999Z" fill="black"/>
<path d="M46.5556 20.1184C43.7628 20.1184 41.3837 20.229 39.0047 20.229C32.2812 20.3396 31.2468 20.3396 31.3503 20.3396C30.9365 20.3396 30.5227 19.8972 30.6262 19.4549C30.7296 17.4641 30.7296 13.5931 30.8331 11.4917C30.8331 11.0493 31.2468 10.7175 31.6606 10.7175C41.2803 11.0493 41.1768 10.7175 41.5906 11.1599C43.5559 13.3719 45.8316 16.6899 47.2797 18.7913C47.4866 19.3443 47.1762 20.1184 46.5556 20.1184ZM40.5562 12.5977L32.2812 12.3765C32.1778 14.1461 32.1778 16.8005 32.0743 18.6807C36.4187 18.5701 40.6597 18.5701 45.004 18.4595C43.7628 16.5793 42.0044 14.2567 40.5562 12.5977Z" fill="black"/>
<path d="M24.937 19.5652C24.937 20.0076 24.5233 20.3394 24.213 20.3394C23.6958 20.3394 19.4548 19.6758 11.697 20.3394C11.0764 20.45 10.6626 19.6758 10.9729 19.0122C14.8001 12.8187 19.8686 9.72192 24.7302 10.6067C25.1439 10.7173 25.4542 11.0491 25.3508 11.4915C25.1439 13.8141 25.2474 17.2427 24.937 19.5652ZM13.2486 18.4592C16.8689 18.238 20.3858 18.238 23.4889 18.5698C23.5924 16.5791 23.5924 14.1459 23.7992 12.1551C19.6617 11.8233 15.8345 14.9201 13.2486 18.4592Z" fill="black"/>
<path d="M59.1752 33.9431C60.2095 33.9431 60.9336 34.8279 60.9336 35.8233C60.9336 36.9293 60.1061 37.7035 59.1752 37.7035C58.2442 37.7035 57.4167 36.8187 57.4167 35.8233C57.4167 34.8279 58.2442 33.9431 59.1752 33.9431Z" fill="black"/>
<path d="M12.2145 33.7227C13.2488 33.7227 13.9729 34.6074 13.9729 35.6028C13.9729 36.5982 13.1454 37.483 12.2145 37.483C11.1801 37.483 10.456 36.5982 10.456 35.6028C10.456 34.6074 11.2835 33.7227 12.2145 33.7227Z" fill="black"/>
<path d="M51.2411 6.3252C51.6548 6.104 52.0686 6.2146 52.2755 6.65699C52.4823 7.09939 52.3789 7.54179 51.9652 7.76298C48.7586 9.75377 48.862 9.86437 48.4483 9.86437C47.6208 9.86437 47.4139 8.75838 48.0345 8.31598L51.2411 6.3252Z" fill="black"/>
<path d="M45.8621 7.54252C45.5518 7.21072 45.5518 6.76832 45.7586 6.32593L49.379 1.90197C49.6893 1.57017 50.103 1.57017 50.5168 1.79137C50.8271 2.12317 50.8271 2.56556 50.6202 3.00796L46.9999 7.43192C46.6896 7.76372 46.1724 7.76372 45.8621 7.54252Z" fill="black"/>
<path d="M44.518 5.10899C44.1042 4.99839 43.7939 4.556 43.8974 4.1136L44.518 0.68503C44.6214 0.242634 45.0352 -0.0891633 45.4489 0.0214357C45.8627 0.132035 46.173 0.574431 46.0696 1.01683L45.4489 4.4454C45.3455 4.88779 44.9317 5.10899 44.518 5.10899Z" fill="black"/>
<path d="M34.8671 25.2053H38.1771C38.5909 25.2053 39.0046 25.5371 39.0046 26.0901C39.0046 26.6431 38.6943 26.9749 38.1771 26.9749H34.8671C34.4534 26.9749 34.0396 26.6431 34.0396 26.0901C34.0396 25.5371 34.4534 25.2053 34.8671 25.2053Z" fill="black"/>
</svg>
