<svg width="50" height="40" viewBox="0 0 50 40" fill="none" xmlns="http://www.w3.org/2000/svg">
<g clip-path="url(#clip0_17776_161892)">
<path d="M27.6471 33.5294L26.4707 37.647L34.706 37.0588L35.8824 33.5294L37.0589 29.4117L36.4707 24.7058L35.8824 20.5882L34.1177 15.8823L32.353 11.7646H22.353L24.706 15.8823L27.0589 21.7646L27.6471 29.4117V33.5294Z" fill="#BFBEBE"/>
<path d="M0 31.625C0.0644221 30.5257 0.170719 29.4263 0.184677 28.3259C0.23192 24.439 0.702201 20.5946 1.29059 16.7645C1.6535 14.4022 2.93657 12.7238 5.12907 11.8022C5.35133 11.7084 5.61224 11.6833 5.85704 11.6768C8.22993 11.6114 10.6028 11.5568 12.9757 11.5001C13.2226 11.4947 13.4707 11.5001 13.7477 11.5001C13.8873 10.993 14.0043 10.524 14.1471 10.0638C14.8976 7.6383 15.9713 5.38293 17.6699 3.48638C19.0389 1.95735 20.6366 0.876567 22.8033 1.05106C22.9332 1.06197 23.0857 1.00308 23.2006 0.932188C25.8086 -0.680812 28.3006 -0.0635318 30.4019 1.74687C33.041 4.01968 34.8223 6.88578 35.8713 10.2187C36.0109 10.6625 36.2009 10.7498 36.6165 10.7356C38.7392 10.6636 40.8619 10.6102 42.9857 10.584C43.3615 10.5796 43.7705 10.668 44.1109 10.8294C45.6323 11.5503 46.6695 12.7576 47.3556 14.2953C48.1523 16.0817 48.4594 17.9946 48.7461 19.9087C49.3538 23.9679 49.3248 28.0293 48.745 32.0896C48.5829 33.2216 48.3832 34.3417 47.58 35.3101C47.988 35.3101 48.3381 35.2632 48.6688 35.3254C48.9286 35.3745 49.1648 35.5588 49.4118 35.6831C49.196 35.8554 48.9984 36.1412 48.76 36.1826C46.7221 36.5371 44.68 36.8741 42.6313 37.1642C40.0706 37.5273 37.5023 37.8349 34.9404 38.1893C34.6612 38.2275 34.3585 38.3616 34.1416 38.5427C33.2364 39.2952 32.1799 39.365 31.1792 38.727C31.0203 38.6256 30.7798 38.6092 30.5823 38.6256C29.4796 38.715 28.3801 38.8404 27.2785 38.9244C26.8533 38.956 26.5076 39.0738 26.1715 39.3628C25.8547 39.6355 25.4424 39.7925 25.0709 39.9997H24.2141C23.3262 39.2134 22.2858 39.1709 21.1949 39.3486C20.9318 39.3912 20.6623 39.401 20.395 39.4097C16.5812 39.534 12.7685 39.7216 8.9536 39.7532C6.77184 39.7718 4.67597 39.2199 2.82276 37.9625C1.36145 36.9711 0.401565 35.634 0.140655 33.8335C0.0955595 33.5325 0.0461692 33.2314 0 32.9304C0 32.4953 0 32.0601 0 31.625ZM12.0781 38.2351C12.2144 38.2242 12.3368 38.2155 12.4592 38.2024C14.4649 38.0028 16.4706 37.7956 18.4763 37.6037C20.9801 37.3648 23.484 37.126 25.9911 36.9177C26.4464 36.8795 26.6697 36.7007 26.7298 36.2622C26.9177 34.9044 27.2302 33.5499 27.2677 32.1867C27.3096 30.6544 27.1378 29.1133 26.9982 27.581C26.6504 23.7618 25.8945 20.0319 24.5094 16.4504C23.9929 15.1144 23.4024 13.8176 22.4651 12.7216C22.3298 12.5635 22.0968 12.3944 21.91 12.3966C20.9469 12.4042 19.9837 12.4522 19.0228 12.5231C18.8907 12.5329 18.6835 12.7303 18.6642 12.8634C18.5826 13.4327 18.4033 13.9867 18.8821 14.5418C19.2687 14.99 19.0357 15.7229 18.5482 16.0686C18.0199 16.4427 17.263 16.35 16.8485 15.8603C16.4566 15.3979 16.3879 14.6083 16.8485 14.2888C17.497 13.8405 17.3253 13.2571 17.35 12.6213C14.2266 12.6998 11.1354 12.7783 7.95506 12.859C8.07102 13.0073 8.11719 13.0782 8.17409 13.1371C9.15868 14.1525 9.90275 15.3423 10.2077 16.7186C10.6919 18.9031 11.1579 21.1029 11.4263 23.3222C12.0244 28.2518 12.048 33.2162 12.077 38.234L12.0781 38.2351ZM32.968 11.9015C33.1205 12.1992 33.2053 12.3551 33.2805 12.5144C33.8689 13.7522 34.5066 14.9693 35.0317 16.2344C36.6154 20.0559 37.265 24.0737 37.3917 28.1983C37.4733 30.8518 37.061 33.3929 35.8563 35.7736C35.8273 35.8303 35.8262 35.9012 35.8101 35.9743C35.8896 35.9863 35.9422 36.0059 35.9926 36.0005C38.8519 35.7278 41.7187 35.5097 44.5694 35.1607C46.6953 34.9012 47.114 34.4191 47.4684 32.2881C48.0235 28.9454 48.1384 25.5743 47.7475 22.2153C47.4931 20.0297 47.0582 17.8594 46.5804 15.7109C46.2862 14.3848 45.5583 13.2451 44.4513 12.4108C43.9251 12.0138 43.3657 11.7564 42.6721 11.8022C41.8722 11.8546 41.0659 11.8262 40.2627 11.8284C38.9636 11.8306 37.6633 11.8284 36.3641 11.8284C36.3287 11.8687 36.2933 11.9102 36.2578 11.9505C36.45 12.1926 36.6143 12.4653 36.8398 12.6714C37.266 13.0608 37.4411 13.6366 37.2317 14.1416C37.032 14.6236 36.5553 14.9246 36.0399 14.8941C35.5213 14.8635 35.0435 14.4796 34.9823 13.9147C34.9479 13.6017 35.1315 13.2691 35.1691 12.9408C35.2045 12.6365 35.2174 12.3148 35.1476 12.0236C35.1283 11.9418 34.7815 11.9145 34.5839 11.908C34.0868 11.8927 33.5875 11.9025 32.9691 11.9025L32.968 11.9015ZM27.7144 36.7835C29.9144 36.585 32.0092 36.3996 34.1018 36.1968C34.2103 36.1859 34.337 36.0507 34.4025 35.9405C35.3216 34.382 35.9583 32.7167 36.0957 30.8954C36.377 27.1732 35.9497 23.5196 34.9705 19.9272C34.2371 17.2389 33.026 14.7599 31.7365 12.317C31.6602 12.1719 31.3671 12.0651 31.1792 12.0716C29.2702 12.1338 27.3622 12.2221 25.4532 12.305C24.8745 12.3301 24.2957 12.3606 23.7009 12.39C24.1057 13.1284 24.5266 13.7991 24.8562 14.5145C26.3121 17.6707 27.2012 21.0047 27.694 24.439C28.2781 28.5081 28.9277 32.5891 27.7155 36.7835H27.7144ZM10.2506 23.7574C7.39781 24.4576 4.71677 24.1718 2.07654 23.0289C1.84033 26.3487 1.70933 29.5834 1.91226 32.8268C2.01963 34.538 2.76156 35.8249 4.33131 36.488C5.8914 37.1467 7.48156 37.7411 9.08567 38.2831C10.4267 38.7368 10.8218 38.414 10.7961 36.9722C10.7445 34.0374 10.6866 31.1026 10.5824 28.1689C10.5309 26.7238 10.3698 25.2831 10.2506 23.7574ZM18.7866 11.3442C19.2826 11.2427 19.7754 11.2689 20.1115 11.0486C20.8932 10.5371 21.3688 10.4619 22.1816 10.9243C22.3738 11.0333 22.6079 11.1337 22.8194 11.1282C24.693 11.077 26.5655 11.0028 28.4391 10.9308C28.6249 10.9232 28.8106 10.885 28.9985 10.8599C28.6711 9.01682 27.3998 6.03838 26.3315 4.61188C25.6604 3.71649 24.8165 3.03923 23.7965 2.58009C23.3852 2.39468 23.0964 2.43286 22.7668 2.76985C21.706 3.85391 20.9447 5.13209 20.323 6.50625C19.638 8.0211 19.1183 9.59047 18.7855 11.3453L18.7866 11.3442ZM10.154 22.5555C9.78787 20.8084 9.49475 19.0983 9.05238 17.4286C8.81617 16.5354 8.41782 15.6488 7.91426 14.8799C7.48478 14.2233 6.83089 13.702 6.21351 13.2004C6.02347 13.0455 5.5038 13.0171 5.34704 13.1644C4.76724 13.7075 4.1359 14.2724 3.77943 14.965C2.73365 16.9989 2.40939 19.2467 2.20002 21.5053C2.1882 21.6351 2.31168 21.851 2.42764 21.9077C4.87031 23.0889 7.39566 23.3484 10.1551 22.5566L10.154 22.5555ZM24.7295 1.46876C27.971 3.42748 29.0791 6.6862 30.2065 9.96673C30.8915 9.95801 31.5013 10.2078 32.035 10.6767C32.1402 10.7694 32.3227 10.8065 32.4709 10.8098C33.2343 10.8229 33.9988 10.8152 34.818 10.8152C34.7557 10.5786 34.7332 10.4564 34.6924 10.3408C33.9913 8.36682 33.0013 6.55533 31.6978 4.92924C30.7165 3.7045 29.6675 2.5441 28.2663 1.78831C27.1679 1.19611 26.0287 0.995442 24.7284 1.46767L24.7295 1.46876ZM15.1134 11.4031C15.952 11.3627 16.7476 11.3245 17.5572 11.2864C18.239 8.04291 19.3546 5.02085 21.4085 2.40014C19.1334 2.63789 15.5998 7.67538 15.1134 11.4031Z" fill="black"/>
<path d="M43.2948 6.9776C43.2948 7.46509 43.2852 7.95259 43.298 8.44009C43.3077 8.81417 43.1219 9.04974 42.7859 9.07919C42.4391 9.11081 42.2179 8.88179 42.1868 8.52407C42.0955 7.48036 42.0032 6.43557 41.9409 5.38968C41.9162 4.97634 42.1309 4.68624 42.5668 4.66661C42.9781 4.64807 43.1327 4.93926 43.1456 5.29698C43.166 5.85646 43.1509 6.41594 43.1509 6.97651C43.1993 6.97651 43.2476 6.97651 43.2959 6.97651L43.2948 6.9776Z" fill="black"/>
<path d="M45.803 5.19336C46.4128 5.19227 46.7296 5.60779 46.5245 6.03422C46.0961 6.92306 45.6483 7.80644 45.1426 8.65166C45.0331 8.83488 44.609 8.96902 44.3921 8.90686C44.056 8.8098 43.9519 8.45971 44.1226 8.10418C44.5285 7.26332 44.9268 6.41811 45.3638 5.59361C45.4669 5.39839 45.7063 5.27843 45.803 5.19336Z" fill="black"/>
<path d="M46.2936 10.3237C46.1369 10.1634 45.8684 10.0129 45.8448 9.83077C45.8169 9.61593 45.949 9.22876 46.1057 9.16769C46.8004 8.8994 47.523 8.69001 48.251 8.53296C48.4163 8.49697 48.7653 8.71727 48.8104 8.88195C48.8662 9.0848 48.7535 9.50687 48.6085 9.56576C47.8859 9.85695 47.1279 10.0609 46.2925 10.3237H46.2936Z" fill="black"/>
</g>
<defs>
<clipPath id="clip0_17776_161892">
<rect width="49.4118" height="40" fill="white"/>
</clipPath>
</defs>
</svg>
